name rise49.25peak52.1432fall72.8391.mot
datacolumns 19
datarows 24
range 11.08995900000000 11.12829400000000
endheader
time	ground_force1_vx	ground_force1_vy	ground_force1_vz	ground_force1_px	ground_force1_py	ground_force1_pz	ground_force2_vx	ground_force2_vy	ground_force2_vz	ground_force2_px	ground_force2_py	ground_force2_pz	ground_torque1_x	ground_torque1_y	ground_torque1_z	ground_torque2_x	ground_torque2_y	ground_torque2_z	
11.08995900000000	76.54400800000001	800.77527199999997	57.22250000000000	0.33665000000000	0.00000000000000	0.10612300000000	0.00000000000000	0.00000000000000	0.00000000000000	0.00000000000000	0.00000000000000	0.00000000000000	0.00000000000000	21.03991100000000	0.00000000000000	0.00000000000000	0.00000000000000	0.00000000000000	
11.09162700000000	75.91991400000001	802.72113300000001	57.39490500000000	0.33625100000000	0.00000000000000	0.10609900000000	0.00000000000000	0.00000000000000	0.00000000000000	0.00000000000000	0.00000000000000	0.00000000000000	0.00000000000000	21.18980400000000	0.00000000000000	0.00000000000000	0.00000000000000	0.00000000000000	
11.09328700000000	75.28441500000000	804.49149699999998	57.56108500000000	0.33585700000000	0.00000000000000	0.10607500000000	0.00000000000000	0.00000000000000	0.00000000000000	0.00000000000000	0.00000000000000	0.00000000000000	0.00000000000000	21.33867700000000	0.00000000000000	0.00000000000000	0.00000000000000	0.00000000000000	
11.09496000000000	74.63805300000000	806.08639100000005	57.72054700000000	0.33546400000000	0.00000000000000	0.10605200000000	0.00000000000000	0.00000000000000	0.00000000000000	0.00000000000000	0.00000000000000	0.00000000000000	0.00000000000000	21.48602800000000	0.00000000000000	0.00000000000000	0.00000000000000	0.00000000000000	
11.09662500000000	73.98135000000001	807.50612799999999	57.87276100000000	0.33507100000000	0.00000000000000	0.10602900000000	0.00000000000000	0.00000000000000	0.00000000000000	0.00000000000000	0.00000000000000	0.00000000000000	0.00000000000000	21.63133500000000	0.00000000000000	0.00000000000000	0.00000000000000	0.00000000000000	
11.09829300000000	73.31481200000000	808.75131699999997	58.01717400000000	0.33467500000000	0.00000000000000	0.10600700000000	0.00000000000000	0.00000000000000	0.00000000000000	0.00000000000000	0.00000000000000	0.00000000000000	0.00000000000000	21.77405300000000	0.00000000000000	0.00000000000000	0.00000000000000	0.00000000000000	
11.09995400000000	72.63893000000000	809.82286199999999	58.15320800000000	0.33427300000000	0.00000000000000	0.10598600000000	0.00000000000000	0.00000000000000	0.00000000000000	0.00000000000000	0.00000000000000	0.00000000000000	0.00000000000000	21.91362500000000	0.00000000000000	0.00000000000000	0.00000000000000	0.00000000000000	
11.10161900000000	71.95417800000000	810.72196599999995	58.28027400000000	0.33386400000000	0.00000000000000	0.10596500000000	0.00000000000000	0.00000000000000	0.00000000000000	0.00000000000000	0.00000000000000	0.00000000000000	0.00000000000000	22.04948000000000	0.00000000000000	0.00000000000000	0.00000000000000	0.00000000000000	
11.10328600000000	71.26102400000001	811.45012699999995	58.39777200000000	0.33344500000000	0.00000000000000	0.10594400000000	0.00000000000000	0.00000000000000	0.00000000000000	0.00000000000000	0.00000000000000	0.00000000000000	0.00000000000000	22.18104400000000	0.00000000000000	0.00000000000000	0.00000000000000	0.00000000000000	
11.10495300000000	70.55992000000001	812.00914200000000	58.50510200000000	0.33301400000000	0.00000000000000	0.10592500000000	0.00000000000000	0.00000000000000	0.00000000000000	0.00000000000000	0.00000000000000	0.00000000000000	0.00000000000000	22.30773800000000	0.00000000000000	0.00000000000000	0.00000000000000	0.00000000000000	
11.10662300000000	69.85131300000000	812.40110000000004	58.60166500000000	0.33256700000000	0.00000000000000	0.10590600000000	0.00000000000000	0.00000000000000	0.00000000000000	0.00000000000000	0.00000000000000	0.00000000000000	0.00000000000000	22.42898900000000	0.00000000000000	0.00000000000000	0.00000000000000	0.00000000000000	
11.10828900000000	69.13564400000000	812.62838199999999	58.68687500000000	0.33210400000000	0.00000000000000	0.10588800000000	0.00000000000000	0.00000000000000	0.00000000000000	0.00000000000000	0.00000000000000	0.00000000000000	0.00000000000000	22.54423000000000	0.00000000000000	0.00000000000000	0.00000000000000	0.00000000000000	
11.10995600000000	68.41334600000000	812.69365300000004	58.76016000000000	0.33162100000000	0.00000000000000	0.10587000000000	0.00000000000000	0.00000000000000	0.00000000000000	0.00000000000000	0.00000000000000	0.00000000000000	0.00000000000000	22.65290500000000	0.00000000000000	0.00000000000000	0.00000000000000	0.00000000000000	
11.11162100000000	67.68485000000000	812.59985800000004	58.82096800000000	0.33111700000000	0.00000000000000	0.10585400000000	0.00000000000000	0.00000000000000	0.00000000000000	0.00000000000000	0.00000000000000	0.00000000000000	0.00000000000000	22.75447500000000	0.00000000000000	0.00000000000000	0.00000000000000	0.00000000000000	
11.11329300000000	66.95058500000000	812.35021700000004	58.86877700000000	0.33058900000000	0.00000000000000	0.10583800000000	0.00000000000000	0.00000000000000	0.00000000000000	0.00000000000000	0.00000000000000	0.00000000000000	0.00000000000000	22.84842000000000	0.00000000000000	0.00000000000000	0.00000000000000	0.00000000000000	
11.11495800000000	66.21097899999999	811.94821000000002	58.90309200000000	0.33003500000000	0.00000000000000	0.10582300000000	0.00000000000000	0.00000000000000	0.00000000000000	0.00000000000000	0.00000000000000	0.00000000000000	0.00000000000000	22.93424400000000	0.00000000000000	0.00000000000000	0.00000000000000	0.00000000000000	
11.11662700000000	65.46645900000000	811.39757599999996	58.92345700000000	0.32945300000000	0.00000000000000	0.10580900000000	0.00000000000000	0.00000000000000	0.00000000000000	0.00000000000000	0.00000000000000	0.00000000000000	0.00000000000000	23.01148200000000	0.00000000000000	0.00000000000000	0.00000000000000	0.00000000000000	
11.11829300000000	64.71745400000000	810.70229900000004	58.92945700000000	0.32884200000000	0.00000000000000	0.10579600000000	0.00000000000000	0.00000000000000	0.00000000000000	0.00000000000000	0.00000000000000	0.00000000000000	0.00000000000000	23.07969500000000	0.00000000000000	0.00000000000000	0.00000000000000	0.00000000000000	
11.11995900000000	63.96439500000000	809.86659599999996	58.92071700000000	0.32819900000000	0.00000000000000	0.10578300000000	0.00000000000000	0.00000000000000	0.00000000000000	0.00000000000000	0.00000000000000	0.00000000000000	0.00000000000000	23.13848200000000	0.00000000000000	0.00000000000000	0.00000000000000	0.00000000000000	
11.12162300000000	63.20771800000000	808.89490799999999	58.89691300000000	0.32752200000000	0.00000000000000	0.10577200000000	0.00000000000000	0.00000000000000	0.00000000000000	0.00000000000000	0.00000000000000	0.00000000000000	0.00000000000000	23.18748000000000	0.00000000000000	0.00000000000000	0.00000000000000	0.00000000000000	
11.12328600000000	62.44785900000000	807.79188499999998	58.85777000000000	0.32681000000000	0.00000000000000	0.10576100000000	0.00000000000000	0.00000000000000	0.00000000000000	0.00000000000000	0.00000000000000	0.00000000000000	0.00000000000000	23.22636400000000	0.00000000000000	0.00000000000000	0.00000000000000	0.00000000000000	
11.12495900000000	61.68526100000000	806.56237399999998	58.80306700000000	0.32606200000000	0.00000000000000	0.10575200000000	0.00000000000000	0.00000000000000	0.00000000000000	0.00000000000000	0.00000000000000	0.00000000000000	0.00000000000000	23.25485300000000	0.00000000000000	0.00000000000000	0.00000000000000	0.00000000000000	
11.12661800000000	60.92037000000000	805.21140700000001	58.73263600000000	0.32527600000000	0.00000000000000	0.10574300000000	0.00000000000000	0.00000000000000	0.00000000000000	0.00000000000000	0.00000000000000	0.00000000000000	0.00000000000000	23.27271000000000	0.00000000000000	0.00000000000000	0.00000000000000	0.00000000000000	
11.12829400000000	60.15363700000000	803.74418300000002	58.64636900000000	0.32445100000000	0.00000000000000	0.10573500000000	0.00000000000000	0.00000000000000	0.00000000000000	0.00000000000000	0.00000000000000	0.00000000000000	0.00000000000000	23.27974600000000	0.00000000000000	0.00000000000000	0.00000000000000	0.00000000000000	
